<?xml version="1.0" encoding="UTF-8" standalone="no"?>
<svg
   width="396.31567mm"
   height="387.54211mm"
   viewBox="0 0 396.31567 387.54213"
   version="1.1"
   preserveAspectRatio="xMidYMid"
   id="svg1"
   sodipodi:docname="Sound level meter2.svg"
   inkscape:version="1.3.2 (091e20e, 2023-11-25, custom)"
   inkscape:export-filename="Sound level meter2.pdf"
   inkscape:export-xdpi="96"
   inkscape:export-ydpi="96"
   xmlns:inkscape="http://www.inkscape.org/namespaces/inkscape"
   xmlns:sodipodi="http://sodipodi.sourceforge.net/DTD/sodipodi-0.dtd"
   xmlns="http://www.w3.org/2000/svg"
   xmlns:svg="http://www.w3.org/2000/svg">
  <sodipodi:namedview
     id="namedview1"
     pagecolor="#ffffff"
     bordercolor="#000000"
     borderopacity="0.25"
     inkscape:showpageshadow="2"
     inkscape:pageopacity="0.0"
     inkscape:pagecheckerboard="0"
     inkscape:deskcolor="#d1d1d1"
     inkscape:document-units="mm"
     inkscape:zoom="0.39248141"
     inkscape:cx="749.08006"
     inkscape:cy="745.25822"
     inkscape:window-width="1536"
     inkscape:window-height="793"
     inkscape:window-x="-8"
     inkscape:window-y="-8"
     inkscape:window-maximized="1"
     inkscape:current-layer="svg1" />
  <defs
     id="defs1" />
  <g
     id="svgGroup"
     stroke-linecap="round"
     fill-rule="evenodd"
     font-size="12px"
     stroke="#000"
     stroke-width="0.25mm"
     fill="none"
     style="fill:none;stroke:#000000;stroke-width:0.25mm"
     transform="translate(0.0423767,0.88719333)">
    <path
       d="m 25.324,329.766 h 8.64 v 3 h 9.36 v -3 h 8.64 v 3 h 9.36 v -3 h 8.64 v 3 h 9.36 v -3 h 8.64 v 3 h 9.36 v -3 h 8.64 v 3 h 9.36 v -3 h 8.64 v 3 h 9.36 v -3 h 8.64 v 3 h 9.36 v -3 h 8.64 v 3 h 9.36 v -3 h 8.64 v 3 h 9.36 v -3 h 8.64 v 3 h 9.36 v -3 h 8.64 v 3 h 9.36 v -3 h 8.64 v 3 h 9.36 v -3 h 15.964 v -8.86 h -5.196 v -8.64 h 5.196 v -9.36 h -5.196 v -8.64 h 5.196 v -8.86 h -15.964 v -3 h -9.36 v 3 h -8.64 v -3 h -9.36 v 3 h -8.64 v -3 h -9.36 v 3 h -8.64 v -3 h -9.36 v 3 h -8.64 v -3 h -9.36 v 3 h -8.64 v -3 h -9.36 v 3 h -8.64 v -3 h -9.36 v 3 h -8.64 v -3 h -9.36 v 3 h -8.64 v -3 h -9.36 v 3 h -8.64 v -3 h -9.36 v 3 h -8.64 v -3 h -9.36 v 3 h -8.64 v -3 h -9.36 v 3 h -8.64 v -3 h -9.36 v 3 H 5.196 v 8.5 H 0 v 9.36 h 5.196 v 8.64 H 0 v 9.36 h 5.196 v 8.5 h 10.768 v 3 h 9.36 z"
       id="side1_outsideCutPath"
       stroke="#FF0000"
       stroke-width="0.02"
       style="stroke:#ff0000;stroke-width:0.01;stroke-dasharray:none"
       vector-effect="non-scaling-stroke" />
    <path
       d="m 25.324,276.406 h 8.64 v 3 h 9.36 v -3 h 8.64 v 3 h 9.36 v -3 h 8.64 v 3 h 9.36 v -3 h 8.64 v 3 h 9.36 v -3 h 8.64 v 3 h 9.36 v -3 h 8.64 v 3 h 9.36 v -3 h 8.64 v 3 h 9.36 v -3 h 8.64 v 3 h 9.36 v -3 h 8.64 v 3 h 9.36 v -3 h 8.64 v 3 h 9.36 v -3 h 8.64 v 3 h 9.36 v -3 h 8.64 v 3 h 9.36 v -3 h 15.964 v -8.86 h -5.196 v -8.64 h 5.196 v -9.36 h -5.196 v -8.64 h 5.196 v -8.86 h -15.964 v -3 h -9.36 v 3 h -8.64 v -3 h -9.36 v 3 h -8.64 v -3 h -9.36 v 3 h -8.64 v -3 h -9.36 v 3 h -8.64 v -3 h -9.36 v 3 h -8.64 v -3 h -9.36 v 3 h -8.64 v -3 h -9.36 v 3 h -8.64 v -3 h -9.36 v 3 h -8.64 v -3 h -9.36 v 3 h -8.64 v -3 h -9.36 v 3 h -8.64 v -3 h -9.36 v 3 h -8.64 v -3 h -9.36 v 3 h -8.64 v -3 h -9.36 v 3 H 5.196 v 8.5 H 0 v 9.36 h 5.196 v 8.64 H 0 v 9.36 h 5.196 v 8.5 h 10.768 v 3 h 9.36 z"
       id="side0_outsideCutPath"
       stroke="#FF0000"
       stroke-width="0.02"
       style="stroke:#ff0000;stroke-width:0.01;stroke-dasharray:none"
       vector-effect="non-scaling-stroke" />
    <path
       d="m 25.291623,383.64495 h 8.64 v 3 h 9.36 v -3 h 8.64 v 3 h 9.36 v -3 h 8.64 v 3 h 9.36 v -3 h 8.64 v 3 h 9.36 v -3 h 8.639997 v 3 h 9.36 v -3 h 8.64 v 3 h 9.36 v -3 h 8.64 v 3 h 9.36 v -3 h 8.64 v 3 h 9.36 v -3 h 8.64 v 3 h 9.36 v -3 h 8.64 v 3 h 9.36 v -3 h 8.64 v 3 h 9.36 v -3 h 8.64 v 3 h 9.36 v -3 h 15.964 v -8.86 h -5.196 v -8.64 h 5.196 v -9.36 h -5.196 v -8.64 h 5.196 v -8.86 h -15.964 v -3 h -9.36 v 3 h -8.64 v -3 h -9.36 v 3 h -8.64 v -3 h -9.36 v 3 h -8.64 v -3 h -9.36 v 3 h -8.64 v -3 h -9.36 v 3 h -8.64 v -3 h -9.36 v 3 h -8.64 v -3 h -9.36 v 3 h -8.64 v -3 h -9.36 v 3 h -8.639997 v -3 h -9.36 v 3 h -8.64 v -3 h -9.36 v 3 h -8.64 v -3 h -9.36 v 3 h -8.64 v -3 h -9.36 v 3 h -8.64 v -3 h -9.36 v 3 H 5.1636231 v 8.5 h -5.19599998 v 9.36 H 5.1636231 v 8.64 h -5.19599998 v 9.36 H 5.1636231 v 8.5 H 15.931623 v 3 h 9.36 z"
       id="side2_outsideCutPath"
       stroke="#FF0000"
       stroke-width="0.02"
       style="fill:none;stroke:#ff0000;stroke-width:0.01;stroke-dasharray:none"
       vector-effect="non-scaling-stroke" />
    <path
       d="m 18.084,223.046 h 8.64 v 3 h 9.36 v -3 h 8.64 v 3 h 9.36 v -3 h 8.64 v 3 h 9.36 v -3 h 8.64 v 3 h 9.36 v -3 h 8.64 v 3 h 9.36 v -3 h 8.64 v 3 h 9.36 v -3 h 8.64 v 3 h 9.36 v -3 h 8.64 v 3 h 9.36 v -3 h 8.64 v 3 h 9.36 v -3 h 8.64 v 3 h 9.36 v -3 h 8.64 v 3 h 9.36 v -3 h 8.64 v 3 h 9.36 v -3 h 8.64 v 3 h 17.98 l 0.104,-0.18 -4.4,-7.621 -4.59,-7.95 -2.598,1.5 -4.32,-7.482 2.598,-1.5 -4.68,-8.106 -2.598,1.5 -4.32,-7.483 2.598,-1.5 -4.68,-8.106 -2.598,1.5 -4.32,-7.482 2.598,-1.5 -4.68,-8.106 -2.598,1.5 -4.32,-7.483 2.598,-1.5 -4.68,-8.106 -2.598,1.5 -4.32,-7.482 2.598,-1.5 -4.68,-8.106 -2.598,1.5 -4.32,-7.483 2.598,-1.5 -4.68,-8.106 -2.598,1.5 -4.32,-7.482 2.598,-1.5 -4.68,-8.106 -2.598,1.5 -4.32,-7.483 2.598,-1.5 -4.68,-8.106 -2.598,1.5 -4.32,-7.482 2.598,-1.5 -4.68,-8.106 -2.598,1.5 -4.32,-7.482 2.598,-1.5 -4.68,-8.106 -2.598,1.5 -4.32,-7.483 2.598,-1.5 -4.68,-8.106 -2.598,1.5 -4.32,-7.482 2.598,-1.5 -4.68,-8.106 -2.598,1.5 -4.32,-7.483 2.598,-1.5 L 130.404,0 125.9,7.801 l -4.59,7.95 2.598,1.5 -4.32,7.483 -2.598,-1.5 -4.68,8.106 2.598,1.5 -4.32,7.482 -2.598,-1.5 -4.68,8.106 2.598,1.5 -4.32,7.483 -2.598,-1.5 -4.68,8.106 2.598,1.5 -4.32,7.482 -2.598,-1.5 -4.68,8.106 2.598,1.5 -4.32,7.482 -2.598,-1.5 -4.68,8.106 2.598,1.5 -4.32,7.483 -2.598,-1.5 -4.68,8.106 2.598,1.5 -4.32,7.482 -2.598,-1.5 -4.68,8.106 2.598,1.5 -4.32,7.483 -2.598,-1.5 -4.68,8.106 2.598,1.5 -4.32,7.482 -2.598,-1.5 -4.68,8.106 2.598,1.5 -4.32,7.483 -2.598,-1.5 -4.68,8.106 2.598,1.5 -4.32,7.482 -2.598,-1.5 -4.68,8.106 2.598,1.5 -4.32,7.483 -2.598,-1.5 -4.68,8.106 2.598,1.5 -4.32,7.482 -2.598,-1.5 -8.99,15.571 0.104,0.18 h 17.98 z"
       id="top_outsideCutPath"
       stroke="#FF0000"
       stroke-width="0.02"
       style="stroke:#ff0000;stroke-width:0.01;stroke-dasharray:none"
       vector-effect="non-scaling-stroke" />
    <path
       d="m 378.17773,2.1228068 h -8.64 v -2.99999994 h -9.36 V 2.1228068 h -8.64 v -2.99999994 h -9.36 V 2.1228068 h -8.64 v -2.99999994 h -9.36 V 2.1228068 h -8.64 v -2.99999994 h -9.36 V 2.1228068 h -8.64 v -2.99999994 h -9.36 V 2.1228068 h -8.64 v -2.99999994 h -9.36 V 2.1228068 h -8.64 v -2.99999994 h -9.36 V 2.1228068 h -8.64 v -2.99999994 h -9.36 V 2.1228068 h -8.64 v -2.99999994 h -9.36 V 2.1228068 h -8.64 v -2.99999994 h -9.36 V 2.1228068 h -8.64 v -2.99999994 h -9.36 V 2.1228068 h -8.64 v -2.99999994 h -9.36 V 2.1228068 h -8.64 v -2.99999994 h -17.98 l -0.104,0.18 4.4,7.62099994 4.59,7.9500002 2.598,-1.5 4.32,7.482 -2.598,1.5 4.68,8.106 2.598,-1.5 4.32,7.483 -2.598,1.5 4.68,8.106 2.598,-1.5 4.32,7.482 -2.598,1.5 4.68,8.106 2.598,-1.5 4.32,7.483 -2.598,1.5 4.68,8.106 2.598,-1.5 4.32,7.482 -2.598,1.5 4.68,8.106 2.598,-1.5 4.32,7.483 -2.598,1.500003 4.68,8.106 2.598,-1.5 4.32,7.482 -2.598,1.5 4.68,8.106 2.598,-1.5 4.32,7.482 -2.598,1.5 4.68,8.106 2.598,-1.5 4.32,7.483 -2.598,1.5 4.68,8.106 2.598,-1.5 4.32,7.482 -2.598,1.5 4.68,8.106 2.598,-1.5 4.32,7.483 -2.598,1.5 4.68,8.106 2.598,-1.5 4.32,7.482 -2.598,1.5 4.68,8.106 2.598,-1.5 4.32,7.483 -2.598,1.5 9.094,15.751 4.504,-7.801 4.59,-7.95 -2.598,-1.5 4.32,-7.483 2.598,1.5 4.68,-8.106 -2.598,-1.5 4.32,-7.482 2.598,1.5 4.68,-8.106 -2.598,-1.5 4.32,-7.483 2.598,1.5 4.68,-8.106 -2.598,-1.5 4.32,-7.482 2.598,1.5 4.68,-8.106 -2.598,-1.5 4.32,-7.483 2.598,1.5 4.68,-8.106 -2.598,-1.5 4.32,-7.482 2.598,1.5 4.68,-8.106 -2.598,-1.5 4.32,-7.482 2.598,1.5 4.68,-8.106 -2.598,-1.500003 4.32,-7.483 2.598,1.5 4.68,-8.106 -2.598,-1.5 4.32,-7.482 2.598,1.5 4.68,-8.106 -2.598,-1.5 4.32,-7.483 2.598,1.5 4.68,-8.106 -2.598,-1.5 4.32,-7.482 2.598,1.5 4.68,-8.106 -2.598,-1.5 4.32,-7.483 2.598,1.5 4.68,-8.106 -2.598,-1.5 4.32,-7.482 2.598,1.5 8.99,-15.57100014 -0.104,-0.18 h -17.98 z"
       id="bottom_outsideCutPath"
       stroke="#FF0000"
       stroke-width="0.02"
       style="stroke:#ff0000;stroke-width:0.01;stroke-dasharray:none"
       vector-effect="non-scaling-stroke" />
  </g>
  <path
     style="fill:none;fill-rule:evenodd;stroke:#000000;stroke-width:0.01;stroke-dasharray:none"
     id="path1"
     d="m 128.54413,135.54895 c 0.36939,1.06714 -1.25624,1.02443 -1.77366,0.61396 -1.40218,-1.11235 -0.67704,-3.24818 0.54574,-4.16128 2.18726,-1.63332 5.24016,-0.46629 6.5489,1.70544 1.92063,3.18711 0.26252,7.26394 -2.86515,8.93652 -4.16869,2.22929 -9.29963,0.0625 -11.32414,-4.02485 -2.54763,-5.14354 0.13537,-11.34116 5.18456,-13.71176 6.11524,-2.8711 13.386,0.332 16.09937,6.34426 3.19762,7.08524 -0.52784,15.43292 -7.50396,18.487 -8.0542,3.52605 -17.48121,-0.72316 -20.87461,-8.66366 -3.85579,-9.02251 0.9181,-19.53049 9.82336,-23.26224 9.99036,-4.18645 21.58047,1.11279 25.64986,10.98307 4.51779,10.95788 -1.30727,23.63097 -12.14277,28.03747" />
</svg>
