<?xml version="1.0" encoding="UTF-8" standalone="no"?>
<svg
   width="407.93311mm"
   height="395.76907mm"
   viewBox="0 0 407.9331 395.76909"
   version="1.1"
   preserveAspectRatio="xMidYMid"
   id="svg1"
   sodipodi:docname="Sound level meter.svg"
   inkscape:version="1.3.2 (091e20e, 2023-11-25, custom)"
   inkscape:export-filename="Sound level meter.pdf"
   inkscape:export-xdpi="96"
   inkscape:export-ydpi="96"
   xmlns:inkscape="http://www.inkscape.org/namespaces/inkscape"
   xmlns:sodipodi="http://sodipodi.sourceforge.net/DTD/sodipodi-0.dtd"
   xmlns="http://www.w3.org/2000/svg"
   xmlns:svg="http://www.w3.org/2000/svg">
  <defs
     id="defs1" />
  <sodipodi:namedview
     id="namedview1"
     pagecolor="#ffffff"
     bordercolor="#000000"
     borderopacity="0.25"
     inkscape:showpageshadow="2"
     inkscape:pageopacity="0.0"
     inkscape:pagecheckerboard="0"
     inkscape:deskcolor="#d1d1d1"
     inkscape:document-units="mm"
     showgrid="false"
     inkscape:zoom="0.4665165"
     inkscape:cx="870.28005"
     inkscape:cy="884.21311"
     inkscape:window-width="1920"
     inkscape:window-height="1009"
     inkscape:window-x="-8"
     inkscape:window-y="-8"
     inkscape:window-maximized="1"
     inkscape:current-layer="svg1">
    <inkscape:grid
       id="grid1"
       units="mm"
       originx="4.1789751"
       originy="3.9799776"
       spacingx="0.99999992"
       spacingy="1"
       empcolor="#0099e5"
       empopacity="0.30196078"
       color="#0099e5"
       opacity="0.14901961"
       empspacing="5"
       dotted="false"
       gridanglex="30"
       gridanglez="30"
       visible="false" />
    <inkscape:page
       x="0"
       y="0"
       width="407.93311"
       height="395.7691"
       id="page2"
       margin="0"
       bleed="0" />
  </sodipodi:namedview>
  <g
     id="svgGroup"
     stroke-linecap="round"
     fill-rule="evenodd"
     font-size="12px"
     stroke="#000"
     stroke-width="0.25mm"
     fill="none"
     style="fill:none;stroke:#000000;stroke-width:0.25mm"
     transform="translate(4.1789773,3.9799775)">
    <path
       d="m 25.324,329.766 h 8.64 v 3 h 9.36 v -3 h 8.64 v 3 h 9.36 v -3 h 8.64 v 3 h 9.36 v -3 h 8.64 v 3 h 9.36 v -3 h 8.64 v 3 h 9.36 v -3 h 8.64 v 3 h 9.36 v -3 h 8.64 v 3 h 9.36 v -3 h 8.64 v 3 h 9.36 v -3 h 8.64 v 3 h 9.36 v -3 h 8.64 v 3 h 9.36 v -3 h 8.64 v 3 h 9.36 v -3 h 8.64 v 3 h 9.36 v -3 h 15.964 v -8.86 h -5.196 v -8.64 h 5.196 v -9.36 h -5.196 v -8.64 h 5.196 v -8.86 h -15.964 v -3 h -9.36 v 3 h -8.64 v -3 h -9.36 v 3 h -8.64 v -3 h -9.36 v 3 h -8.64 v -3 h -9.36 v 3 h -8.64 v -3 h -9.36 v 3 h -8.64 v -3 h -9.36 v 3 h -8.64 v -3 h -9.36 v 3 h -8.64 v -3 h -9.36 v 3 h -8.64 v -3 h -9.36 v 3 h -8.64 v -3 h -9.36 v 3 h -8.64 v -3 h -9.36 v 3 h -8.64 v -3 h -9.36 v 3 h -8.64 v -3 h -9.36 v 3 H 5.196 v 8.5 H 0 v 9.36 h 5.196 v 8.64 H 0 v 9.36 h 5.196 v 8.5 h 10.768 v 3 h 9.36 z"
       id="side1_outsideCutPath"
       stroke="#FF0000"
       stroke-width="0.02"
       style="stroke:#ff0000;stroke-width:0.02"
       vector-effect="non-scaling-stroke" />
    <path
       d="m 117.574,311.122 v -0.757 a 4.042,4.042 0 0 0 0.83,0.309 4.73,4.73 0 0 0 0.003,0.001 3.67,3.67 0 0 0 0.584,0.101 3.144,3.144 0 0 0 0.275,0.012 3.221,3.221 0 0 0 0.366,-0.02 q 0.178,-0.02 0.324,-0.062 a 1.238,1.238 0 0 0 0.293,-0.122 0.702,0.702 0 0 0 0.232,-0.215 q 0.091,-0.137 0.109,-0.32 a 0.937,0.937 0 0 0 0.003,-0.087 0.652,0.652 0 0 0 -0.199,-0.472 0.934,0.934 0 0 0 -0.074,-0.067 1.471,1.471 0 0 0 -0.168,-0.117 q -0.302,-0.183 -0.896,-0.411 a 12.277,12.277 0 0 1 -0.349,-0.136 q -0.483,-0.197 -0.721,-0.354 a 1.776,1.776 0 0 1 -0.246,-0.194 q -0.138,-0.13 -0.225,-0.278 a 1.085,1.085 0 0 1 -0.001,-0.002 q -0.155,-0.266 -0.155,-0.635 a 1.295,1.295 0 0 1 0.103,-0.523 q 0.132,-0.303 0.433,-0.517 0.426,-0.303 1.104,-0.365 a 4.018,4.018 0 0 1 0.367,-0.016 q 0.87,0 1.701,0.354 l -0.29,0.664 a 5.11,5.11 0 0 0 -0.622,-0.213 q -0.452,-0.122 -0.848,-0.122 a 2.994,2.994 0 0 0 -0.304,0.015 q -0.36,0.037 -0.572,0.167 a 0.694,0.694 0 0 0 -0.168,0.142 0.54,0.54 0 0 0 -0.127,0.36 0.706,0.706 0 0 0 0.023,0.183 0.56,0.56 0 0 0 0.088,0.186 q 0.11,0.152 0.356,0.29 a 2.375,2.375 0 0 0 0.146,0.074 q 0.243,0.115 0.699,0.287 a 24.086,24.086 0 0 0 0.1,0.037 7.671,7.671 0 0 1 0.44,0.175 q 0.428,0.187 0.68,0.375 a 1.396,1.396 0 0 1 0.175,0.154 q 0.337,0.354 0.337,0.89 a 1.607,1.607 0 0 1 -0.078,0.515 1.297,1.297 0 0 1 -0.482,0.646 1.913,1.913 0 0 1 -0.577,0.279 q -0.427,0.129 -0.997,0.129 a 5.491,5.491 0 0 1 -0.624,-0.033 q -0.636,-0.073 -1.048,-0.307 z m 11.459,0.241 -0.109,-0.723 h -0.044 a 1.838,1.838 0 0 1 -1.349,0.801 2.755,2.755 0 0 1 -0.343,0.021 2.474,2.474 0 0 1 -0.713,-0.098 1.868,1.868 0 0 1 -0.932,-0.625 2.388,2.388 0 0 1 -0.419,-0.804 q -0.168,-0.539 -0.168,-1.252 0,-1.333 0.59,-2.07 a 1.923,1.923 0 0 1 1.371,-0.725 2.758,2.758 0 0 1 0.271,-0.013 2.404,2.404 0 0 1 0.723,0.103 1.856,1.856 0 0 1 0.959,0.694 h 0.064 l -0.034,-0.389 -0.02,-0.379 v -2.193 h 0.817 v 7.652 z m 6.654,-3.064 v 0.517 h -3.713 a 3.277,3.277 0 0 0 0.057,0.548 q 0.109,0.555 0.422,0.893 a 1.483,1.483 0 0 0 0.779,0.439 2.248,2.248 0 0 0 0.502,0.053 4.312,4.312 0 0 0 1.615,-0.32 4.941,4.941 0 0 0 0.107,-0.044 v 0.728 a 4.901,4.901 0 0 1 -0.447,0.168 3.748,3.748 0 0 1 -0.372,0.1 q -0.3,0.063 -0.697,0.077 a 6.651,6.651 0 0 1 -0.235,0.004 3.172,3.172 0 0 1 -0.794,-0.094 2.246,2.246 0 0 1 -1.092,-0.634 q -0.651,-0.686 -0.689,-1.874 a 4.663,4.663 0 0 1 -0.002,-0.147 q 0,-1.063 0.426,-1.769 a 2.418,2.418 0 0 1 0.216,-0.302 2.092,2.092 0 0 1 1.524,-0.76 2.886,2.886 0 0 1 0.199,-0.007 2.487,2.487 0 0 1 0.701,0.094 1.893,1.893 0 0 1 0.903,0.572 2.283,2.283 0 0 1 0.517,1.043 3.323,3.323 0 0 1 0.073,0.715 z m 4.042,-4.126 v 7.19 h -0.796 v -5.124 a 18.564,18.564 0 0 1 0.018,-0.847 15.688,15.688 0 0 1 0.021,-0.363 4.623,4.623 0 0 1 -0.11,0.106 5.84,5.84 0 0 1 -0.121,0.11 q -0.128,0.113 -1.171,0.959 l -0.433,-0.56 1.904,-1.471 z m -16.204,1.8 v 5.39 h -0.817 v -5.39 z m 5.355,2.882 v -0.172 q 0,-0.973 -0.275,-1.473 a 1.223,1.223 0 0 0 -0.106,-0.162 q -0.342,-0.439 -1.049,-0.484 a 2.626,2.626 0 0 0 -0.168,-0.006 1.465,1.465 0 0 0 -0.491,0.079 1.218,1.218 0 0 0 -0.608,0.48 q -0.282,0.413 -0.356,1.078 a 4.554,4.554 0 0 0 -0.025,0.498 q 0,1.033 0.378,1.559 a 1.23,1.23 0 0 0 0.891,0.513 1.829,1.829 0 0 0 0.221,0.013 q 0.534,0 0.88,-0.186 a 1.099,1.099 0 0 0 0.332,-0.269 1.352,1.352 0 0 0 0.222,-0.399 q 0.154,-0.42 0.154,-1.069 z m 3.113,-0.703 h 2.818 a 2.782,2.782 0 0 0 -0.033,-0.447 q -0.039,-0.24 -0.124,-0.432 a 1.263,1.263 0 0 0 -0.187,-0.304 1.118,1.118 0 0 0 -0.674,-0.383 1.678,1.678 0 0 0 -0.31,-0.028 1.609,1.609 0 0 0 -0.464,0.064 1.243,1.243 0 0 0 -0.571,0.359 1.613,1.613 0 0 0 -0.32,0.541 q -0.082,0.223 -0.119,0.49 a 3.084,3.084 0 0 0 -0.016,0.14 z m -9.342,-3.789 a 0.905,0.905 0 0 0 -0.012,0.15 q 0,0.275 0.138,0.41 a 0.458,0.458 0 0 0 0.166,0.106 0.519,0.519 0 0 0 0.178,0.03 q 0.197,0 0.34,-0.136 a 0.398,0.398 0 0 0 0.077,-0.103 q 0.065,-0.122 0.065,-0.307 a 0.934,0.934 0 0 0 -0.004,-0.089 q -0.02,-0.209 -0.138,-0.32 a 0.481,0.481 0 0 0 -0.34,-0.132 0.623,0.623 0 0 0 -0.041,0.001 0.472,0.472 0 0 0 -0.303,0.129 0.382,0.382 0 0 0 -0.084,0.12 q -0.029,0.062 -0.042,0.141 z"
       id="side1_labelLayer"
       stroke="#777777"
       fill="#777777"
       style="fill:#777777;stroke:#777777"
       vector-effect="non-scaling-stroke" />
    <path
       d="m 25.324,276.406 h 8.64 v 3 h 9.36 v -3 h 8.64 v 3 h 9.36 v -3 h 8.64 v 3 h 9.36 v -3 h 8.64 v 3 h 9.36 v -3 h 8.64 v 3 h 9.36 v -3 h 8.64 v 3 h 9.36 v -3 h 8.64 v 3 h 9.36 v -3 h 8.64 v 3 h 9.36 v -3 h 8.64 v 3 h 9.36 v -3 h 8.64 v 3 h 9.36 v -3 h 8.64 v 3 h 9.36 v -3 h 8.64 v 3 h 9.36 v -3 h 15.964 v -8.86 h -5.196 v -8.64 h 5.196 v -9.36 h -5.196 v -8.64 h 5.196 v -8.86 h -15.964 v -3 h -9.36 v 3 h -8.64 v -3 h -9.36 v 3 h -8.64 v -3 h -9.36 v 3 h -8.64 v -3 h -9.36 v 3 h -8.64 v -3 h -9.36 v 3 h -8.64 v -3 h -9.36 v 3 h -8.64 v -3 h -9.36 v 3 h -8.64 v -3 h -9.36 v 3 h -8.64 v -3 h -9.36 v 3 h -8.64 v -3 h -9.36 v 3 h -8.64 v -3 h -9.36 v 3 h -8.64 v -3 h -9.36 v 3 h -8.64 v -3 h -9.36 v 3 H 5.196 v 8.5 H 0 v 9.36 h 5.196 v 8.64 H 0 v 9.36 h 5.196 v 8.5 h 10.768 v 3 h 9.36 z"
       id="side0_outsideCutPath"
       stroke="#FF0000"
       stroke-width="0.02"
       style="stroke:#ff0000;stroke-width:0.02"
       vector-effect="non-scaling-stroke" />
    <path
       d="m 116.703,257.762 v -0.757 a 4.042,4.042 0 0 0 0.83,0.309 4.73,4.73 0 0 0 0.004,10e-4 3.67,3.67 0 0 0 0.584,0.101 3.144,3.144 0 0 0 0.274,0.012 3.221,3.221 0 0 0 0.367,-0.02 q 0.177,-0.02 0.324,-0.062 a 1.238,1.238 0 0 0 0.293,-0.122 0.702,0.702 0 0 0 0.232,-0.215 q 0.091,-0.137 0.108,-0.32 a 0.937,0.937 0 0 0 0.004,-0.087 0.652,0.652 0 0 0 -0.2,-0.472 0.934,0.934 0 0 0 -0.073,-0.067 1.471,1.471 0 0 0 -0.169,-0.117 q -0.302,-0.183 -0.896,-0.412 a 12.277,12.277 0 0 1 -0.349,-0.135 q -0.483,-0.197 -0.72,-0.354 a 1.776,1.776 0 0 1 -0.247,-0.194 q -0.137,-0.13 -0.224,-0.278 a 1.085,1.085 0 0 1 -0.002,-0.002 q -0.154,-0.266 -0.154,-0.635 a 1.295,1.295 0 0 1 0.102,-0.523 q 0.132,-0.303 0.434,-0.517 0.426,-0.303 1.104,-0.365 a 4.018,4.018 0 0 1 0.366,-0.016 q 0.871,0 1.702,0.354 l -0.29,0.664 a 5.11,5.11 0 0 0 -0.623,-0.214 q -0.452,-0.121 -0.848,-0.121 a 2.994,2.994 0 0 0 -0.304,0.015 q -0.359,0.037 -0.571,0.167 a 0.694,0.694 0 0 0 -0.168,0.142 0.54,0.54 0 0 0 -0.127,0.36 0.706,0.706 0 0 0 0.022,0.183 0.56,0.56 0 0 0 0.088,0.186 q 0.111,0.152 0.357,0.29 a 2.375,2.375 0 0 0 0.145,0.074 q 0.244,0.115 0.699,0.287 a 24.086,24.086 0 0 0 0.1,0.037 7.671,7.671 0 0 1 0.441,0.175 q 0.428,0.187 0.679,0.375 a 1.396,1.396 0 0 1 0.176,0.154 q 0.337,0.354 0.337,0.89 a 1.607,1.607 0 0 1 -0.079,0.515 1.297,1.297 0 0 1 -0.482,0.645 1.913,1.913 0 0 1 -0.577,0.28 q -0.427,0.129 -0.997,0.129 a 5.491,5.491 0 0 1 -0.624,-0.033 q -0.635,-0.073 -1.048,-0.307 z m 11.459,0.241 -0.108,-0.723 h -0.044 a 1.838,1.838 0 0 1 -1.35,0.801 2.755,2.755 0 0 1 -0.342,0.021 2.474,2.474 0 0 1 -0.713,-0.098 1.868,1.868 0 0 1 -0.932,-0.625 2.388,2.388 0 0 1 -0.42,-0.804 q -0.168,-0.539 -0.168,-1.252 0,-1.333 0.59,-2.07 a 1.923,1.923 0 0 1 1.372,-0.725 2.758,2.758 0 0 1 0.271,-0.013 2.404,2.404 0 0 1 0.722,0.103 1.856,1.856 0 0 1 0.96,0.694 h 0.064 l -0.035,-0.389 -0.019,-0.379 v -2.193 h 0.816 v 7.652 z m 6.654,-3.064 v 0.517 h -3.713 a 3.277,3.277 0 0 0 0.058,0.548 q 0.109,0.555 0.422,0.893 a 1.483,1.483 0 0 0 0.779,0.439 2.248,2.248 0 0 0 0.502,0.053 4.312,4.312 0 0 0 1.615,-0.32 4.941,4.941 0 0 0 0.106,-0.044 v 0.727 a 4.901,4.901 0 0 1 -0.447,0.169 3.748,3.748 0 0 1 -0.372,0.1 q -0.3,0.063 -0.697,0.077 a 6.651,6.651 0 0 1 -0.235,0.004 3.172,3.172 0 0 1 -0.794,-0.094 2.246,2.246 0 0 1 -1.092,-0.634 q -0.651,-0.686 -0.688,-1.874 a 4.663,4.663 0 0 1 -0.003,-0.147 q 0,-1.063 0.427,-1.769 a 2.418,2.418 0 0 1 0.215,-0.302 2.092,2.092 0 0 1 1.525,-0.76 2.886,2.886 0 0 1 0.199,-0.007 2.487,2.487 0 0 1 0.7,0.094 1.893,1.893 0 0 1 0.903,0.572 2.283,2.283 0 0 1 0.517,1.043 3.323,3.323 0 0 1 0.073,0.715 z m 5.784,-0.541 q 0,1.864 -0.588,2.784 a 1.904,1.904 0 0 1 -1.383,0.89 2.786,2.786 0 0 1 -0.415,0.03 q -1.16,0 -1.765,-0.942 a 3.216,3.216 0 0 1 -0.363,-0.81 q -0.242,-0.8 -0.242,-1.952 a 9.648,9.648 0 0 1 0.046,-0.98 q 0.103,-0.999 0.432,-1.623 a 2.468,2.468 0 0 1 0.107,-0.185 1.896,1.896 0 0 1 1.383,-0.882 2.779,2.779 0 0 1 0.402,-0.028 q 1.137,0 1.742,0.894 a 2.526,2.526 0 0 1 0.036,0.055 q 0.608,0.949 0.608,2.749 z m -3.677,2.013 a 2.183,2.183 0 0 0 0.116,0.272 1.407,1.407 0 0 0 0.318,0.418 q 0.338,0.297 0.857,0.297 a 1.427,1.427 0 0 0 0.516,-0.088 q 0.365,-0.141 0.592,-0.504 a 1.678,1.678 0 0 0 0.075,-0.133 2.629,2.629 0 0 0 0.192,-0.526 q 0.136,-0.527 0.166,-1.291 a 11.559,11.559 0 0 0 0.009,-0.458 q 0,-1.301 -0.259,-2.018 a 2.209,2.209 0 0 0 -0.108,-0.251 q -0.326,-0.641 -1.008,-0.712 a 1.694,1.694 0 0 0 -0.175,-0.009 1.425,1.425 0 0 0 -0.513,0.088 q -0.423,0.162 -0.662,0.623 -0.369,0.711 -0.369,2.279 0,1.299 0.253,2.013 z m -14.269,-3.798 v 5.39 h -0.816 v -5.39 z m 5.356,2.882 v -0.172 q 0,-0.973 -0.275,-1.473 a 1.223,1.223 0 0 0 -0.106,-0.162 q -0.342,-0.439 -1.049,-0.484 a 2.626,2.626 0 0 0 -0.169,-0.006 1.465,1.465 0 0 0 -0.49,0.079 1.218,1.218 0 0 0 -0.609,0.48 q -0.282,0.413 -0.355,1.078 a 4.554,4.554 0 0 0 -0.026,0.498 q 0,1.033 0.379,1.559 a 1.23,1.23 0 0 0 0.891,0.513 1.829,1.829 0 0 0 0.22,0.013 q 0.534,0 0.881,-0.186 a 1.099,1.099 0 0 0 0.331,-0.269 1.352,1.352 0 0 0 0.222,-0.399 q 0.155,-0.42 0.155,-1.069 z m 3.113,-0.703 h 2.818 a 2.782,2.782 0 0 0 -0.034,-0.447 q -0.039,-0.24 -0.124,-0.432 a 1.263,1.263 0 0 0 -0.186,-0.304 1.118,1.118 0 0 0 -0.674,-0.383 1.678,1.678 0 0 0 -0.31,-0.028 1.609,1.609 0 0 0 -0.465,0.064 1.243,1.243 0 0 0 -0.57,0.359 1.613,1.613 0 0 0 -0.321,0.541 q -0.081,0.223 -0.118,0.49 a 3.084,3.084 0 0 0 -0.016,0.14 z m -9.343,-3.789 a 0.905,0.905 0 0 0 -0.011,0.15 q 0,0.275 0.138,0.41 a 0.458,0.458 0 0 0 0.165,0.106 0.519,0.519 0 0 0 0.179,0.029 q 0.196,0 0.339,-0.135 a 0.398,0.398 0 0 0 0.078,-0.103 q 0.065,-0.122 0.065,-0.307 a 0.934,0.934 0 0 0 -0.004,-0.089 q -0.02,-0.209 -0.139,-0.32 a 0.481,0.481 0 0 0 -0.339,-0.132 0.623,0.623 0 0 0 -0.041,0.001 0.472,0.472 0 0 0 -0.303,0.129 0.382,0.382 0 0 0 -0.085,0.12 q -0.028,0.062 -0.042,0.141 z"
       id="side0_labelLayer"
       stroke="#777777"
       fill="#777777"
       style="fill:#777777;stroke:#777777"
       vector-effect="non-scaling-stroke" />
    <path
       d="m 25.291623,383.64495 h 8.64 v 3 h 9.36 v -3 h 8.64 v 3 h 9.36 v -3 h 8.64 v 3 h 9.36 v -3 h 8.64 v 3 h 9.36 v -3 h 8.639997 v 3 h 9.36 v -3 h 8.64 v 3 h 9.36 v -3 h 8.64 v 3 h 9.36 v -3 h 8.64 v 3 h 9.36 v -3 h 8.64 v 3 h 9.36 v -3 h 8.64 v 3 h 9.36 v -3 h 8.64 v 3 h 9.36 v -3 h 8.64 v 3 h 9.36 v -3 h 15.964 v -8.86 h -5.196 v -8.64 h 5.196 v -9.36 h -5.196 v -8.64 h 5.196 v -8.86 h -15.964 v -3 h -9.36 v 3 h -8.64 v -3 h -9.36 v 3 h -8.64 v -3 h -9.36 v 3 h -8.64 v -3 h -9.36 v 3 h -8.64 v -3 h -9.36 v 3 h -8.64 v -3 h -9.36 v 3 h -8.64 v -3 h -9.36 v 3 h -8.64 v -3 h -9.36 v 3 h -8.639997 v -3 h -9.36 v 3 h -8.64 v -3 h -9.36 v 3 h -8.64 v -3 h -9.36 v 3 h -8.64 v -3 h -9.36 v 3 h -8.64 v -3 h -9.36 v 3 H 5.1636231 v 8.5 h -5.19599998 v 9.36 H 5.1636231 v 8.64 h -5.19599998 v 9.36 H 5.1636231 v 8.5 H 15.931623 v 3 h 9.36 z"
       id="side2_outsideCutPath"
       stroke="#FF0000"
       stroke-width="0.02"
       style="stroke:#ff0000;stroke-width:0.02;fill:none"
       vector-effect="non-scaling-stroke" />
    <path
       d="m 139.41333,365.61924 v 0.757 h -4.726 v -0.703 l 1.894,-1.903 a 35.957,35.957 0 0 0 0.373,-0.383 q 0.557,-0.58 0.767,-0.866 a 3.724,3.724 0 0 0 0.238,-0.364 2.749,2.749 0 0 0 0.176,-0.364 2.058,2.058 0 0 0 0.136,-0.674 2.369,2.369 0 0 0 0.001,-0.088 1.53,1.53 0 0 0 -0.048,-0.395 1.097,1.097 0 0 0 -0.301,-0.518 1.152,1.152 0 0 0 -0.522,-0.284 q -0.177,-0.046 -0.386,-0.052 a 2.208,2.208 0 0 0 -0.061,-10e-4 2.436,2.436 0 0 0 -0.848,0.148 q -0.291,0.107 -0.631,0.341 a 5.111,5.111 0 0 0 -0.262,0.195 l -0.432,-0.556 a 3.71,3.71 0 0 1 0.97,-0.593 3.132,3.132 0 0 1 1.193,-0.233 3.187,3.187 0 0 1 0.644,0.061 q 0.39,0.081 0.69,0.267 a 1.779,1.779 0 0 1 0.255,0.191 1.712,1.712 0 0 1 0.558,1.104 2.407,2.407 0 0 1 0.017,0.29 2.566,2.566 0 0 1 -0.215,1.017 3.22,3.22 0 0 1 -0.168,0.336 4.19,4.19 0 0 1 -0.287,0.428 q -0.333,0.443 -0.886,1.002 a 18.392,18.392 0 0 1 -0.263,0.261 l -1.574,1.54 v 0.039 z m -23.857,0.516 v -0.757 a 4.042,4.042 0 0 0 0.83,0.309 4.73,4.73 0 0 0 0.004,0.001 3.67,3.67 0 0 0 0.583,0.101 3.144,3.144 0 0 0 0.275,0.012 3.221,3.221 0 0 0 0.366,-0.02 q 0.178,-0.02 0.325,-0.062 a 1.238,1.238 0 0 0 0.293,-0.122 0.702,0.702 0 0 0 0.232,-0.215 q 0.091,-0.137 0.108,-0.32 a 0.937,0.937 0 0 0 0.004,-0.087 0.652,0.652 0 0 0 -0.2,-0.472 0.934,0.934 0 0 0 -0.073,-0.067 1.471,1.471 0 0 0 -0.169,-0.117 q -0.302,-0.183 -0.896,-0.411 a 12.277,12.277 0 0 1 -0.349,-0.136 q -0.483,-0.197 -0.721,-0.354 a 1.776,1.776 0 0 1 -0.246,-0.194 q -0.137,-0.13 -0.224,-0.278 a 1.085,1.085 0 0 1 -0.002,-0.002 q -0.155,-0.266 -0.155,-0.635 a 1.295,1.295 0 0 1 0.103,-0.523 q 0.132,-0.303 0.434,-0.517 0.426,-0.303 1.103,-0.365 a 4.018,4.018 0 0 1 0.367,-0.016 q 0.87,0 1.702,0.354 l -0.291,0.664 a 5.11,5.11 0 0 0 -0.622,-0.213 q -0.452,-0.122 -0.848,-0.122 a 2.994,2.994 0 0 0 -0.304,0.015 q -0.359,0.037 -0.571,0.167 a 0.694,0.694 0 0 0 -0.168,0.142 0.54,0.54 0 0 0 -0.128,0.36 0.706,0.706 0 0 0 0.023,0.183 0.56,0.56 0 0 0 0.088,0.186 q 0.111,0.152 0.357,0.29 a 2.375,2.375 0 0 0 0.145,0.074 q 0.244,0.115 0.699,0.287 a 24.086,24.086 0 0 0 0.1,0.037 7.671,7.671 0 0 1 0.441,0.175 q 0.428,0.187 0.679,0.375 a 1.396,1.396 0 0 1 0.176,0.154 q 0.337,0.354 0.337,0.89 a 1.607,1.607 0 0 1 -0.079,0.515 1.297,1.297 0 0 1 -0.482,0.646 1.913,1.913 0 0 1 -0.577,0.279 q -0.427,0.129 -0.997,0.129 a 5.491,5.491 0 0 1 -0.624,-0.033 q -0.635,-0.073 -1.048,-0.307 z m 11.459,0.241 -0.108,-0.723 h -0.044 a 1.838,1.838 0 0 1 -1.35,0.801 2.755,2.755 0 0 1 -0.342,0.021 2.474,2.474 0 0 1 -0.713,-0.098 1.868,1.868 0 0 1 -0.932,-0.625 2.388,2.388 0 0 1 -0.42,-0.804 q -0.168,-0.539 -0.168,-1.252 0,-1.333 0.59,-2.07 a 1.923,1.923 0 0 1 1.371,-0.725 2.758,2.758 0 0 1 0.272,-0.013 2.404,2.404 0 0 1 0.722,0.103 1.856,1.856 0 0 1 0.96,0.694 h 0.064 l -0.035,-0.389 -0.019,-0.379 v -2.193 h 0.816 v 7.652 z m 6.654,-3.064 v 0.517 h -3.713 a 3.277,3.277 0 0 0 0.057,0.548 q 0.11,0.555 0.423,0.893 a 1.483,1.483 0 0 0 0.778,0.439 2.248,2.248 0 0 0 0.503,0.053 4.312,4.312 0 0 0 1.615,-0.32 4.941,4.941 0 0 0 0.106,-0.044 v 0.728 a 4.901,4.901 0 0 1 -0.447,0.168 3.748,3.748 0 0 1 -0.372,0.1 q -0.3,0.063 -0.697,0.077 a 6.651,6.651 0 0 1 -0.235,0.004 3.172,3.172 0 0 1 -0.794,-0.094 2.246,2.246 0 0 1 -1.092,-0.634 q -0.651,-0.686 -0.689,-1.874 a 4.663,4.663 0 0 1 -0.002,-0.147 q 0,-1.063 0.427,-1.769 a 2.418,2.418 0 0 1 0.215,-0.302 2.092,2.092 0 0 1 1.525,-0.76 2.886,2.886 0 0 1 0.199,-0.007 2.487,2.487 0 0 1 0.7,0.094 1.893,1.893 0 0 1 0.903,0.572 2.283,2.283 0 0 1 0.517,1.043 3.323,3.323 0 0 1 0.073,0.715 z m -12.162,-2.326 v 5.39 h -0.816 v -5.39 z m 5.356,2.882 v -0.172 q 0,-0.973 -0.275,-1.473 a 1.223,1.223 0 0 0 -0.107,-0.162 q -0.341,-0.439 -1.049,-0.484 a 2.626,2.626 0 0 0 -0.168,-0.006 1.465,1.465 0 0 0 -0.49,0.079 1.218,1.218 0 0 0 -0.609,0.48 q -0.282,0.413 -0.355,1.078 a 4.554,4.554 0 0 0 -0.026,0.498 q 0,1.033 0.379,1.559 a 1.23,1.23 0 0 0 0.891,0.513 1.829,1.829 0 0 0 0.22,0.013 q 0.534,0 0.881,-0.186 a 1.099,1.099 0 0 0 0.331,-0.269 1.352,1.352 0 0 0 0.222,-0.399 q 0.155,-0.42 0.155,-1.069 z m 3.113,-0.703 h 2.818 a 2.782,2.782 0 0 0 -0.034,-0.447 q -0.039,-0.24 -0.124,-0.432 a 1.263,1.263 0 0 0 -0.187,-0.304 1.118,1.118 0 0 0 -0.673,-0.383 1.678,1.678 0 0 0 -0.31,-0.028 1.609,1.609 0 0 0 -0.465,0.064 1.243,1.243 0 0 0 -0.57,0.359 1.613,1.613 0 0 0 -0.321,0.541 q -0.081,0.223 -0.118,0.49 a 3.084,3.084 0 0 0 -0.016,0.14 z m -9.343,-3.789 a 0.905,0.905 0 0 0 -0.011,0.15 q 0,0.275 0.137,0.41 a 0.458,0.458 0 0 0 0.166,0.106 0.519,0.519 0 0 0 0.179,0.03 q 0.196,0 0.339,-0.136 a 0.398,0.398 0 0 0 0.078,-0.103 q 0.065,-0.122 0.065,-0.307 a 0.934,0.934 0 0 0 -0.004,-0.089 q -0.02,-0.209 -0.139,-0.32 a 0.481,0.481 0 0 0 -0.339,-0.132 0.623,0.623 0 0 0 -0.042,0.001 0.472,0.472 0 0 0 -0.303,0.129 0.382,0.382 0 0 0 -0.084,0.12 q -0.029,0.062 -0.042,0.141 z"
       id="side2_labelLayer"
       stroke="#777777"
       fill="#777777"
       style="fill:#777777;stroke:#777777"
       vector-effect="non-scaling-stroke" />
    <path
       d="m 18.084,223.046 h 8.64 v 3 h 9.36 v -3 h 8.64 v 3 h 9.36 v -3 h 8.64 v 3 h 9.36 v -3 h 8.64 v 3 h 9.36 v -3 h 8.64 v 3 h 9.36 v -3 h 8.64 v 3 h 9.36 v -3 h 8.64 v 3 h 9.36 v -3 h 8.64 v 3 h 9.36 v -3 h 8.64 v 3 h 9.36 v -3 h 8.64 v 3 h 9.36 v -3 h 8.64 v 3 h 9.36 v -3 h 8.64 v 3 h 9.36 v -3 h 8.64 v 3 h 17.98 l 0.104,-0.18 -4.4,-7.621 -4.59,-7.95 -2.598,1.5 -4.32,-7.482 2.598,-1.5 -4.68,-8.106 -2.598,1.5 -4.32,-7.483 2.598,-1.5 -4.68,-8.106 -2.598,1.5 -4.32,-7.482 2.598,-1.5 -4.68,-8.106 -2.598,1.5 -4.32,-7.483 2.598,-1.5 -4.68,-8.106 -2.598,1.5 -4.32,-7.482 2.598,-1.5 -4.68,-8.106 -2.598,1.5 -4.32,-7.483 2.598,-1.5 -4.68,-8.106 -2.598,1.5 -4.32,-7.482 2.598,-1.5 -4.68,-8.106 -2.598,1.5 -4.32,-7.483 2.598,-1.5 -4.68,-8.106 -2.598,1.5 -4.32,-7.482 2.598,-1.5 -4.68,-8.106 -2.598,1.5 -4.32,-7.482 2.598,-1.5 -4.68,-8.106 -2.598,1.5 -4.32,-7.483 2.598,-1.5 -4.68,-8.106 -2.598,1.5 -4.32,-7.482 2.598,-1.5 -4.68,-8.106 -2.598,1.5 -4.32,-7.483 2.598,-1.5 L 130.404,0 125.9,7.801 l -4.59,7.95 2.598,1.5 -4.32,7.483 -2.598,-1.5 -4.68,8.106 2.598,1.5 -4.32,7.482 -2.598,-1.5 -4.68,8.106 2.598,1.5 -4.32,7.483 -2.598,-1.5 -4.68,8.106 2.598,1.5 -4.32,7.482 -2.598,-1.5 -4.68,8.106 2.598,1.5 -4.32,7.482 -2.598,-1.5 -4.68,8.106 2.598,1.5 -4.32,7.483 -2.598,-1.5 -4.68,8.106 2.598,1.5 -4.32,7.482 -2.598,-1.5 -4.68,8.106 2.598,1.5 -4.32,7.483 -2.598,-1.5 -4.68,8.106 2.598,1.5 -4.32,7.482 -2.598,-1.5 -4.68,8.106 2.598,1.5 -4.32,7.483 -2.598,-1.5 -4.68,8.106 2.598,1.5 -4.32,7.482 -2.598,-1.5 -4.68,8.106 2.598,1.5 -4.32,7.483 -2.598,-1.5 -4.68,8.106 2.598,1.5 -4.32,7.482 -2.598,-1.5 -8.99,15.571 0.104,0.18 h 17.98 z"
       id="top_outsideCutPath"
       stroke="#FF0000"
       stroke-width="0.02"
       style="stroke:#ff0000;stroke-width:0.02"
       vector-effect="non-scaling-stroke" />
    <path
       d="m 148.69753,200.85077 h -0.265 a 34.679,34.679 0 0 1 0.228,2.563 29.059,29.059 0 0 1 0.037,1.455 v 9.956 h -3.665 v -35.055 h 2.981 l 0.507,3.311 h 0.177 a 9.864,9.864 0 0 1 1.426,-1.62 7.628,7.628 0 0 1 1.863,-1.25 9.177,9.177 0 0 1 2.631,-0.769 11.878,11.878 0 0 1 1.674,-0.114 11.232,11.232 0 0 1 3.173,0.424 8.302,8.302 0 0 1 4.255,2.865 11.003,11.003 0 0 1 1.877,3.666 q 0.485,1.58 0.651,3.481 a 23.862,23.862 0 0 1 0.088,2.081 21.485,21.485 0 0 1 -0.285,3.615 q -0.329,1.926 -1.04,3.472 a 10.3,10.3 0 0 1 -1.335,2.173 q -2.66,3.3 -7.384,3.3 a 11.115,11.115 0 0 1 -2.793,-0.34 9.671,9.671 0 0 1 -1.523,-0.532 8.116,8.116 0 0 1 -3.278,-2.682 z m -35.805,0.088 v 2.804 a 3.604,3.604 0 0 1 -0.428,0.17 q -0.456,0.151 -1.109,0.267 a 13.705,13.705 0 0 1 -0.218,0.038 q -1.159,0.187 -2.087,0.187 a 9.571,9.571 0 0 1 -2.82,-0.379 q -3.1,-0.957 -3.912,-4.325 a 11.518,11.518 0 0 1 -0.287,-2.691 v -14.393 h -3.465999 v -1.766 l 3.465999,-1.523 1.545,-5.165 h 2.119 v 5.607 h 7.02 v 2.847 h -7.02 v 14.239 q 0,1.535 0.512,2.569 a 3.554,3.554 0 0 0 0.526,0.786 3.404,3.404 0 0 0 2.092,1.114 4.898,4.898 0 0 0 0.755,0.056 12.034,12.034 0 0 0 1.763,-0.126 11.093,11.093 0 0 0 0.114,-0.018 19.823,19.823 0 0 0 0.529,-0.09 q 0.541,-0.101 0.906,-0.208 z m 25.38,-5.412 a 18.928,18.928 0 0 0 0.337,-3.682 21.507,21.507 0 0 0 -0.008,-0.582 q -0.055,-2.015 -0.491,-3.725 a 11.41,11.41 0 0 0 -2.492,-4.832 9.593,9.593 0 0 0 -4.454,-2.873 12.313,12.313 0 0 0 -3.615,-0.505 14.232,14.232 0 0 0 -2.556,0.22 9.693,9.693 0 0 0 -5.656,3.08 q -1.964,2.192 -2.624,5.537 a 19.027,19.027 0 0 0 -0.334,3.68 q 0,3.819 1.369,6.666 a 12.044,12.044 0 0 0 0.267,0.523 9.921,9.921 0 0 0 3.618,3.848 10.203,10.203 0 0 0 2.342,1.041 11.767,11.767 0 0 0 3.42,0.482 14.229,14.229 0 0 0 2.484,-0.207 9.769,9.769 0 0 0 5.75,-3.115 10.222,10.222 0 0 0 1.217,-1.672 q 0.993,-1.699 1.426,-3.884 z m -18.096,-3.682 a 18.557,18.557 0 0 0 0.177,2.651 q 0.195,1.345 0.604,2.435 a 7.688,7.688 0 0 0 1.073,1.978 6.006,6.006 0 0 0 3.912,2.303 9.101,9.101 0 0 0 1.541,0.125 8.512,8.512 0 0 0 2.245,-0.279 5.923,5.923 0 0 0 3.218,-2.138 7.866,7.866 0 0 0 1.225,-2.386 q 0.641,-1.96 0.641,-4.689 0,-2.96 -0.768,-5.007 a 7.545,7.545 0 0 0 -1.098,-2.002 6.028,6.028 0 0 0 -3.747,-2.236 9.242,9.242 0 0 0 -1.76,-0.159 8.721,8.721 0 0 0 -2.171,0.254 5.836,5.836 0 0 0 -3.26,2.108 7.577,7.577 0 0 0 -1.177,2.276 q -0.348,1.046 -0.511,2.325 a 19.364,19.364 0 0 0 -0.144,2.441 z m 28.521,-0.817 v 0.817 a 24.229,24.229 0 0 0 0.12,2.504 q 0.263,2.526 1.106,4.064 a 5.527,5.527 0 0 0 0.474,0.727 q 1.699,2.197 5.452,2.197 3.014,0 4.773,-2.347 a 7.302,7.302 0 0 0 0.139,-0.192 q 1.402,-2.003 1.698,-5.202 a 19.522,19.522 0 0 0 0.079,-1.796 q 0,-4.525 -1.777,-6.942 a 5.7,5.7 0 0 0 -4.17,-2.375 7.884,7.884 0 0 0 -0.83,-0.042 10.559,10.559 0 0 0 -1.973,0.171 q -1.098,0.21 -1.942,0.674 a 4.842,4.842 0 0 0 -1.449,1.208 6.278,6.278 0 0 0 -0.982,1.789 q -0.621,1.687 -0.706,4.183 a 23.321,23.321 0 0 0 -0.012,0.562 z"
       id="top_labelLayer"
       stroke="#777777"
       fill="#777777"
       style="fill:#777777;stroke:#777777"
       vector-effect="non-scaling-stroke" />
    <path
       d="m 378.17773,2.1228068 h -8.64 v -2.99999994 h -9.36 V 2.1228068 h -8.64 v -2.99999994 h -9.36 V 2.1228068 h -8.64 v -2.99999994 h -9.36 V 2.1228068 h -8.64 v -2.99999994 h -9.36 V 2.1228068 h -8.64 v -2.99999994 h -9.36 V 2.1228068 h -8.64 v -2.99999994 h -9.36 V 2.1228068 h -8.64 v -2.99999994 h -9.36 V 2.1228068 h -8.64 v -2.99999994 h -9.36 V 2.1228068 h -8.64 v -2.99999994 h -9.36 V 2.1228068 h -8.64 v -2.99999994 h -9.36 V 2.1228068 h -8.64 v -2.99999994 h -9.36 V 2.1228068 h -8.64 v -2.99999994 h -9.36 V 2.1228068 h -8.64 v -2.99999994 h -17.98 l -0.104,0.18 4.4,7.62099994 4.59,7.9500002 2.598,-1.5 4.32,7.482 -2.598,1.5 4.68,8.106 2.598,-1.5 4.32,7.483 -2.598,1.5 4.68,8.106 2.598,-1.5 4.32,7.482 -2.598,1.5 4.68,8.106 2.598,-1.5 4.32,7.483 -2.598,1.5 4.68,8.106 2.598,-1.5 4.32,7.482 -2.598,1.5 4.68,8.106 2.598,-1.5 4.32,7.483 -2.598,1.500003 4.68,8.106 2.598,-1.5 4.32,7.482 -2.598,1.5 4.68,8.106 2.598,-1.5 4.32,7.482 -2.598,1.5 4.68,8.106 2.598,-1.5 4.32,7.483 -2.598,1.5 4.68,8.106 2.598,-1.5 4.32,7.482 -2.598,1.5 4.68,8.106 2.598,-1.5 4.32,7.483 -2.598,1.5 4.68,8.106 2.598,-1.5 4.32,7.482 -2.598,1.5 4.68,8.106 2.598,-1.5 4.32,7.483 -2.598,1.5 9.094,15.751 4.504,-7.801 4.59,-7.95 -2.598,-1.5 4.32,-7.483 2.598,1.5 4.68,-8.106 -2.598,-1.5 4.32,-7.482 2.598,1.5 4.68,-8.106 -2.598,-1.5 4.32,-7.483 2.598,1.5 4.68,-8.106 -2.598,-1.5 4.32,-7.482 2.598,1.5 4.68,-8.106 -2.598,-1.5 4.32,-7.483 2.598,1.5 4.68,-8.106 -2.598,-1.5 4.32,-7.482 2.598,1.5 4.68,-8.106 -2.598,-1.5 4.32,-7.482 2.598,1.5 4.68,-8.106 -2.598,-1.500003 4.32,-7.483 2.598,1.5 4.68,-8.106 -2.598,-1.5 4.32,-7.482 2.598,1.5 4.68,-8.106 -2.598,-1.5 4.32,-7.483 2.598,1.5 4.68,-8.106 -2.598,-1.5 4.32,-7.482 2.598,1.5 4.68,-8.106 -2.598,-1.5 4.32,-7.483 2.598,1.5 4.68,-8.106 -2.598,-1.5 4.32,-7.482 2.598,1.5 8.99,-15.57100014 -0.104,-0.18 h -17.98 z"
       id="bottom_outsideCutPath"
       stroke="#FF0000"
       stroke-width="0.02"
       style="stroke:#ff0000;stroke-width:0.02"
       vector-effect="non-scaling-stroke" />
    <path
       d="m 337.47567,43.004462 h -3.664 v -15.74 q 0,-1.811 -0.486,-3.056 a 4.428,4.428 0 0 0 -0.751,-1.282 3.856,3.856 0 0 0 -1.792,-1.159 q -0.889,-0.286 -2.049,-0.286 a 9.429,9.429 0 0 0 -1.919,0.182 q -1.14,0.237 -2,0.784 a 4.853,4.853 0 0 0 -1.136,0.998 6.055,6.055 0 0 0 -1.027,1.858 q -0.602,1.689 -0.606,4.153 a 20.314,20.314 0 0 0 0,0.038 v 13.51 h -3.665 v -15.74 q 0,-1.811 -0.485,-3.056 a 4.428,4.428 0 0 0 -0.751,-1.282 3.844,3.844 0 0 0 -1.768,-1.149 q -0.636,-0.208 -1.413,-0.27 a 8.581,8.581 0 0 0 -0.682,-0.026 9.101,9.101 0 0 0 -1.882,0.181 q -1.162,0.246 -2.027,0.824 a 4.803,4.803 0 0 0 -1.135,1.059 6.145,6.145 0 0 0 -0.911,1.73 q -0.69,1.95 -0.69,5.035 v 12.694 h -3.664 v -24.195 h 2.98 l 0.596,3.312 h 0.177 q 1.037,-1.766 2.925,-2.76 a 8.7,8.7 0 0 1 3.436,-0.964 10.508,10.508 0 0 1 0.791,-0.029 11.997,11.997 0 0 1 2.7,0.281 q 1.661,0.385 2.82,1.294 a 6.256,6.256 0 0 1 1.897,2.531 h 0.177 a 7.651,7.651 0 0 1 2.882,-2.861 9.193,9.193 0 0 1 0.252,-0.141 9.275,9.275 0 0 1 3.403,-1.035 11.565,11.565 0 0 1 1.277,-0.069 q 4.106,0 6.148,2.108 a 6.31,6.31 0 0 1 1.355,2.216 q 0.365,0.977 0.536,2.194 a 16.808,16.808 0 0 1 0.151,2.334 z m -145.076,-3.113 h -0.265 l -0.772,3.113 h -2.627 V 8.6554622 h 3.664 v 8.3439998 q 0,2.714 -0.165,4.889 a 45.703,45.703 0 0 1 -0.011,0.144 h 0.176 a 8.331,8.331 0 0 1 6.081,-3.531 12.515,12.515 0 0 1 1.513,-0.089 11.2,11.2 0 0 1 3.152,0.421 8.384,8.384 0 0 1 4.254,2.835 q 2.638,3.256 2.638,9.216 a 21.485,21.485 0 0 1 -0.285,3.615 q -0.329,1.927 -1.039,3.472 a 10.3,10.3 0 0 1 -1.336,2.174 q -2.66,3.3 -7.384,3.3 a 11.115,11.115 0 0 1 -2.793,-0.341 9.671,9.671 0 0 1 -1.523,-0.531 8.116,8.116 0 0 1 -3.278,-2.682 z m 62.472,0.088 v 2.804 a 3.604,3.604 0 0 1 -0.428,0.169 q -0.456,0.152 -1.108,0.268 a 13.705,13.705 0 0 1 -0.219,0.037 q -1.159,0.188 -2.086,0.188 a 9.571,9.571 0 0 1 -2.821,-0.38 q -3.1,-0.956 -3.911,-4.324 a 11.518,11.518 0 0 1 -0.288,-2.691 v -14.393 h -3.466 v -1.766 l 3.466,-1.523 1.545,-5.166 h 2.12 v 5.607 h 7.019 v 2.848 h -7.019 v 14.238 q 0,1.536 0.512,2.57 a 3.554,3.554 0 0 0 0.525,0.786 3.404,3.404 0 0 0 2.093,1.114 4.898,4.898 0 0 0 0.755,0.056 12.034,12.034 0 0 0 1.763,-0.126 11.093,11.093 0 0 0 0.113,-0.018 19.823,19.823 0 0 0 0.529,-0.09 q 0.542,-0.102 0.906,-0.208 z m 15.96,0 v 2.804 a 3.604,3.604 0 0 1 -0.427,0.169 q -0.456,0.152 -1.109,0.268 a 13.705,13.705 0 0 1 -0.219,0.037 q -1.159,0.188 -2.086,0.188 a 9.571,9.571 0 0 1 -2.82,-0.38 q -3.101,-0.956 -3.912,-4.324 a 11.518,11.518 0 0 1 -0.288,-2.691 v -14.393 h -3.465 v -1.766 l 3.465,-1.523 1.546,-5.166 h 2.119 v 5.607 h 7.019 v 2.848 h -7.019 v 14.238 q 0,1.536 0.512,2.57 a 3.554,3.554 0 0 0 0.525,0.786 3.404,3.404 0 0 0 2.093,1.114 4.898,4.898 0 0 0 0.755,0.056 12.034,12.034 0 0 0 1.763,-0.126 11.093,11.093 0 0 0 0.113,-0.018 19.823,19.823 0 0 0 0.529,-0.09 q 0.542,-0.102 0.906,-0.208 z m -33.846,-5.412 a 18.928,18.928 0 0 0 0.336,-3.683 21.507,21.507 0 0 0 -0.007,-0.581 q -0.055,-2.015 -0.491,-3.725 a 11.41,11.41 0 0 0 -2.493,-4.833 9.593,9.593 0 0 0 -4.453,-2.872 12.313,12.313 0 0 0 -3.615,-0.505 14.232,14.232 0 0 0 -2.556,0.219 9.693,9.693 0 0 0 -5.656,3.081 q -1.964,2.192 -2.624,5.537 a 19.027,19.027 0 0 0 -0.334,3.679 q 0,3.819 1.369,6.667 a 12.044,12.044 0 0 0 0.266,0.522 9.921,9.921 0 0 0 3.619,3.849 10.203,10.203 0 0 0 2.342,1.041 11.767,11.767 0 0 0 3.419,0.482 14.229,14.229 0 0 0 2.485,-0.208 9.769,9.769 0 0 0 5.749,-3.114 10.222,10.222 0 0 0 1.218,-1.672 q 0.992,-1.699 1.426,-3.884 z m 59.227,0 a 18.928,18.928 0 0 0 0.336,-3.683 21.507,21.507 0 0 0 -0.008,-0.581 q -0.054,-2.015 -0.49,-3.725 a 11.41,11.41 0 0 0 -2.493,-4.833 9.593,9.593 0 0 0 -4.453,-2.872 12.313,12.313 0 0 0 -3.615,-0.505 14.232,14.232 0 0 0 -2.557,0.219 9.693,9.693 0 0 0 -5.655,3.081 q -1.964,2.192 -2.624,5.537 a 19.027,19.027 0 0 0 -0.334,3.679 q 0,3.819 1.369,6.667 a 12.044,12.044 0 0 0 0.266,0.522 9.921,9.921 0 0 0 3.619,3.849 10.203,10.203 0 0 0 2.342,1.041 11.767,11.767 0 0 0 3.419,0.482 14.229,14.229 0 0 0 2.485,-0.208 9.769,9.769 0 0 0 5.749,-3.114 10.222,10.222 0 0 0 1.217,-1.672 q 0.993,-1.699 1.427,-3.884 z m -77.323,-3.683 a 18.557,18.557 0 0 0 0.177,2.651 q 0.194,1.346 0.604,2.436 a 7.688,7.688 0 0 0 1.073,1.977 6.006,6.006 0 0 0 3.912,2.304 9.101,9.101 0 0 0 1.541,0.125 8.512,8.512 0 0 0 2.245,-0.28 5.923,5.923 0 0 0 3.218,-2.138 7.866,7.866 0 0 0 1.225,-2.385 q 0.641,-1.96 0.641,-4.69 0,-2.959 -0.768,-5.006 a 7.545,7.545 0 0 0 -1.098,-2.002 6.028,6.028 0 0 0 -3.747,-2.236 9.242,9.242 0 0 0 -1.76,-0.159 8.721,8.721 0 0 0 -2.172,0.254 5.836,5.836 0 0 0 -3.259,2.108 7.577,7.577 0 0 0 -1.178,2.275 q -0.347,1.046 -0.51,2.326 a 19.364,19.364 0 0 0 -0.144,2.44 z m 59.227,0 a 18.557,18.557 0 0 0 0.176,2.651 q 0.195,1.346 0.605,2.436 a 7.688,7.688 0 0 0 1.073,1.977 6.006,6.006 0 0 0 3.912,2.304 9.101,9.101 0 0 0 1.541,0.125 8.512,8.512 0 0 0 2.245,-0.28 5.923,5.923 0 0 0 3.218,-2.138 7.866,7.866 0 0 0 1.225,-2.385 q 0.64,-1.96 0.64,-4.69 0,-2.959 -0.767,-5.006 a 7.545,7.545 0 0 0 -1.098,-2.002 6.028,6.028 0 0 0 -3.748,-2.236 9.242,9.242 0 0 0 -1.76,-0.159 8.721,8.721 0 0 0 -2.171,0.254 5.836,5.836 0 0 0 -3.259,2.108 7.577,7.577 0 0 0 -1.178,2.275 q -0.347,1.046 -0.51,2.326 a 19.364,19.364 0 0 0 -0.144,2.44 z m -78.653,-9.403 a 10.297,10.297 0 0 0 -1.994,0.179 q -2.237,0.443 -3.414,1.973 a 6.273,6.273 0 0 0 -0.908,1.73 q -0.748,2.095 -0.748,5.521 a 24.229,24.229 0 0 0 0.12,2.505 q 0.264,2.526 1.107,4.064 a 5.527,5.527 0 0 0 0.473,0.727 q 1.7,2.197 5.452,2.197 a 7.305,7.305 0 0 0 2.075,-0.278 5.27,5.27 0 0 0 2.958,-2.184 q 1.183,-1.758 1.521,-4.615 a 20.997,20.997 0 0 0 0.135,-2.46 q 0,-4.724 -1.656,-7.042 a 5.344,5.344 0 0 0 -3.402,-2.153 8.475,8.475 0 0 0 -1.719,-0.164 z"
       id="bottom_labelLayer"
       stroke="#777777"
       fill="#777777"
       style="fill:#777777;stroke:#777777"
       vector-effect="non-scaling-stroke" />
  </g>
  <path
     sodipodi:type="spiral"
     style="fill:none;fill-rule:evenodd;stroke:#000000;stroke-width:0.565;stroke-dasharray:none"
     id="path1"
     sodipodi:cx="119.92673"
     sodipodi:cy="113.78714"
     sodipodi:expansion="1"
     sodipodi:revolution="3"
     sodipodi:radius="22.523005"
     sodipodi:argument="-17.612003"
     sodipodi:t0="0"
     d="m 119.92673,113.78714 c 0.36939,1.06714 -1.25624,1.02443 -1.77366,0.61396 -1.40218,-1.11235 -0.67704,-3.24818 0.54574,-4.16128 2.18726,-1.63332 5.24016,-0.46629 6.5489,1.70544 1.92063,3.18711 0.26252,7.26394 -2.86515,8.93652 -4.16869,2.22929 -9.29963,0.0625 -11.32414,-4.02485 -2.54763,-5.14354 0.13537,-11.34116 5.18456,-13.71176 6.11524,-2.8711 13.386,0.332 16.09937,6.34426 3.19762,7.08524 -0.52784,15.43292 -7.50396,18.487 -8.0542,3.52605 -17.48121,-0.72316 -20.87461,-8.66366 -3.85579,-9.02251 0.9181,-19.530492 9.82336,-23.262238 9.99036,-4.186456 21.58047,1.112786 25.64986,10.983068 4.51779,10.95788 -1.30727,23.63097 -12.14277,28.03747"
     transform="translate(12.753997,24.854596)" />
</svg>
